<svg xmlns="http://www.w3.org/2000/svg" width="1200" height="630" viewBox="0 0 1200 630" role="img" aria-labelledby="title desc">
  <title id="title">Oracle Ball AI</title>
  <desc id="desc">Daily horoscope, AI oracle, and widgets.</desc>
  <defs>
    <radialGradient id="orb" cx="36%" cy="28%" r="72%">
      <stop offset="0" stop-color="#ffffff"/>
      <stop offset="0.13" stop-color="#dce4ff"/>
      <stop offset="0.46" stop-color="#6d8cff"/>
      <stop offset="1" stop-color="#21113f"/>
    </radialGradient>
    <radialGradient id="glow" cx="50%" cy="50%" r="50%">
      <stop offset="0" stop-color="#6d8cff" stop-opacity="0.55"/>
      <stop offset="1" stop-color="#6d8cff" stop-opacity="0"/>
    </radialGradient>
    <linearGradient id="bg" x1="0" x2="1" y1="0" y2="1">
      <stop offset="0" stop-color="#050510"/>
      <stop offset="0.55" stop-color="#120a25"/>
      <stop offset="1" stop-color="#21113f"/>
    </linearGradient>
  </defs>
  <rect width="1200" height="630" fill="url(#bg)"/>
  <circle cx="924" cy="142" r="300" fill="#ffd36a" opacity="0.09"/>
  <circle cx="276" cy="498" r="360" fill="#6d8cff" opacity="0.14"/>
  <g opacity="0.34" fill="#fff">
    <circle cx="138" cy="96" r="2"/><circle cx="206" cy="182" r="1.5"/><circle cx="1042" cy="104" r="2"/>
    <circle cx="1106" cy="292" r="1.5"/><circle cx="792" cy="502" r="2"/><circle cx="488" cy="118" r="1.5"/>
  </g>
  <circle cx="296" cy="315" r="230" fill="url(#glow)"/>
  <circle cx="296" cy="315" r="142" fill="url(#orb)"/>
  <ellipse cx="296" cy="315" rx="206" ry="96" fill="none" stroke="#ffffff" stroke-opacity="0.2" stroke-width="2" transform="rotate(-18 296 315)"/>
  <ellipse cx="296" cy="315" rx="188" ry="82" fill="none" stroke="#ffd36a" stroke-opacity="0.28" stroke-width="2" transform="rotate(24 296 315)"/>
  <text x="500" y="250" fill="#ffffff" font-family="Inter, Arial, sans-serif" font-size="82" font-weight="850">Oracle Ball AI</text>
  <text x="504" y="324" fill="#ffd36a" font-family="Inter, Arial, sans-serif" font-size="34" font-weight="760">Daily horoscope • AI oracle • Widgets</text>
  <text x="504" y="390" fill="#b9b9c9" font-family="Inter, Arial, sans-serif" font-size="28">Personal guidance for reflection and daily clarity.</text>
</svg>
